<?xml version="1.0" encoding="UTF-8" standalone="no"?>
<svg width="31px" height="39px" viewBox="0 0 31 39" version="1.1" xmlns="http://www.w3.org/2000/svg" xmlns:xlink="http://www.w3.org/1999/xlink">
    <!-- Generator: Sketch 3.7.2 (28276) - http://www.bohemiancoding.com/sketch -->
    <title>contractor_icn</title>
    <desc>Created with Sketch.</desc>
    <defs>
        <path d="M23.4701134,10.5832618 C20.7300567,10.5832618 18.501126,8.35137866 18.501126,5.60931313 C18.501126,2.8659293 20.7300567,0.635364449 23.4701134,0.635364449 C26.2114875,0.635364449 28.4404182,2.8659293 28.4404182,5.60931313 C28.4404182,8.35137866 26.2114875,10.5832618 23.4701134,10.5832618 L23.4701134,10.5832618 Z M21.7984154,34.6303856 C20.8104142,34.6303856 19.9778585,33.8578613 19.9014531,32.8730907 L19.2414682,24.2751333 C19.2348816,24.1696692 19.1558415,24.0892529 19.0583587,24.0866163 L18.512982,24.0642051 C17.5539622,24.0246561 16.7648785,23.274543 16.6792518,22.3161384 L15.9428615,14.1294908 C15.9402269,12.6160815 17.1231936,11.4322475 18.5762141,11.4322475 L28.3640128,11.4322475 C29.8170332,11.4322475 31,12.6160815 31,14.0701673 L30.2649271,22.331958 C30.1806177,23.2798162 29.4007554,24.0233378 28.4509569,24.0628868 L27.9095322,24.085298 C27.8133668,24.0892529 27.7330093,24.1670326 27.7264227,24.2619503 L27.0717072,32.8704541 C26.9979364,33.856543 26.1640634,34.6303856 25.1747449,34.6303856 L21.7984154,34.6303856 Z" id="path-1"></path>
        <mask id="mask-2" maskContentUnits="userSpaceOnUse" maskUnits="objectBoundingBox" x="0" y="0" width="15.0571429" height="33.9950211" fill="white">
            <use xlink:href="#path-1"></use>
        </mask>
        <path d="M7.52725629,10.834261 C4.7871996,10.834261 2.55826886,8.60237785 2.55826886,5.86031232 C2.55826886,3.11692848 4.7871996,0.886363636 7.52725629,0.886363636 C10.2686303,0.886363636 12.4975611,3.11692848 12.4975611,5.86031232 C12.4975611,8.60237785 10.2686303,10.834261 7.52725629,10.834261 L7.52725629,10.834261 Z M5.85555824,34.8813847 C4.86755703,34.8813847 4.03500134,34.1088605 3.95859591,33.1240899 L3.2986111,24.5261325 C3.29202443,24.4206684 3.21298433,24.340252 3.11550155,24.3376154 L2.57012488,24.3152043 C1.61110503,24.2756553 0.8220214,23.5255422 0.736394629,22.5671376 L4.3923732e-06,14.38049 C-0.00263027752,12.8670807 1.18033651,11.6832467 2.63335696,11.6832467 L12.4211556,11.6832467 C13.8741761,11.6832467 15.0571429,12.8670807 15.0571429,14.3211664 L14.32207,22.5829572 C14.2377605,23.5308154 13.4578982,24.274337 12.5080997,24.313886 L11.9666751,24.3362971 C11.8705096,24.340252 11.7901522,24.4180318 11.7835655,24.5129494 L11.12885,33.1214533 C11.0550793,34.1075422 10.2212063,34.8813847 9.23188771,34.8813847 L5.85555824,34.8813847 Z" id="path-3"></path>
        <mask id="mask-4" maskContentUnits="userSpaceOnUse" maskUnits="objectBoundingBox" x="0" y="0" width="15.0571429" height="33.9950211" fill="white">
            <use xlink:href="#path-3"></use>
        </mask>
        <path d="M15.4985255,12.0394834 C12.4265014,12.0394834 9.92752796,9.53719986 9.92752796,6.46292353 C9.92752796,3.38716919 12.4265014,0.886363636 15.4985255,0.886363636 C18.5720266,0.886363636 21.071,3.38716919 21.071,6.46292353 C21.071,9.53719986 18.5720266,12.0394834 15.4985255,12.0394834 L15.4985255,12.0394834 Z M13.6242954,39 C12.5165944,39 11.5831717,38.1338818 11.4975095,37.0298027 L10.7575652,27.3901728 C10.7501806,27.2719314 10.6615645,27.1817724 10.5522713,27.1788163 L9.94082037,27.15369 C8.86561193,27.1093495 7.98092807,26.2683576 7.88492731,25.1938389 L7.05932083,16.0153504 C7.05636696,14.3185864 8.3826543,12.9913267 10.0117132,12.9913267 L20.9853378,12.9913267 C22.6143968,12.9913267 23.9406841,14.3185864 23.9406841,15.9488396 L23.1165545,25.2115751 C23.0220307,26.2742696 22.1476854,27.1078715 21.0828155,27.152212 L20.4757954,27.1773383 C20.3679791,27.1817724 20.2778861,27.2689754 20.2705014,27.3753926 L19.5364649,37.0268467 C19.4537566,38.1324037 18.5188569,39 17.409679,39 L13.6242954,39 Z" id="path-5"></path>
        <mask id="mask-6" maskContentUnits="userSpaceOnUse" maskUnits="objectBoundingBox" x="0" y="0" width="16.8813682" height="38.1136364" fill="white">
            <use xlink:href="#path-5"></use>
        </mask>
    </defs>
    <g id="WEB" stroke="none" stroke-width="1" fill="none" fill-rule="evenodd" stroke-linecap="square">
        <g id="ELEMENTS" transform="translate(-425.000000, -3173.000000)" stroke-width="4">
            <g id="contractor_icn" transform="translate(425.000000, 3173.000000)">
                <use id="user" stroke-opacity="0.497763813" stroke="#47B7E9" mask="url(#mask-2)" xlink:href="#path-1"></use>
                <use id="user-copy" stroke-opacity="0.497763813" stroke="#47B7E9" mask="url(#mask-4)" xlink:href="#path-3"></use>
                <use id="user-copy-2" stroke="#54636D" mask="url(#mask-6)" fill="#FFFFFF" xlink:href="#path-5"></use>
            </g>
        </g>
    </g>
</svg>