<?xml version="1.0" encoding="UTF-8" standalone="no"?>
<svg width="42px" height="42px" viewBox="0 0 42 42" version="1.1" xmlns="http://www.w3.org/2000/svg" xmlns:xlink="http://www.w3.org/1999/xlink">
    <!-- Generator: Sketch 3.7.2 (28276) - http://www.bohemiancoding.com/sketch -->
    <title>fleet_icn</title>
    <desc>Created with Sketch.</desc>
    <defs></defs>
    <g id="WEB" stroke="none" stroke-width="1" fill="none" fill-rule="evenodd">
        <g id="ELEMENTS" transform="translate(-636.000000, -3172.000000)">
            <g id="fleet_icn" transform="translate(637.000000, 3172.000000)">
                <path d="M34.7875931,10.6556433 C35.579064,9.90029756 37.5922246,7.97416593 39.0750011,6.49138941 C41.8205187,3.74587187 41.0536786,1.52581222 40.2638496,0.732699202 C39.2523432,-0.278807262 36.9698854,-0.543178269 34.5051594,1.92318976 C33.0207409,3.40596628 31.0962513,5.41748482 30.3409055,6.20895579 C30.0781766,6.47168474 29.5297299,6.7787492 28.8482767,6.7787492 L25.1733555,6.78367537 C19.5394615,6.79188565 9.45723801,6.80666415 9.26675952,6.80830621 C8.41453248,6.82472677 8.1008998,7.21225197 7.53274844,7.78040333 C6.61648122,8.70159671 6.87428401,10.412619 8.36691286,10.8937414 C11.7380537,11.9774983 20.8514642,14.9134944 21.6429352,15.1614448 L21.6347249,15.1696551 L21.6429352,15.1614448 C20.7644353,16.0695018 17.7446944,19.1828398 17.6133299,19.3125622 C17.4836075,19.4422847 17.4836075,19.4422847 17.2914869,19.4439267 L11.629678,19.4948305 C11.1961753,19.5046828 10.7249052,19.7132239 10.394852,20.0416351 L9.43260717,21.0022378 C8.72652311,21.7066798 9.01716702,23.0203246 10.073009,23.2649909 L13.9728919,24.1648376 C13.4359396,24.7001478 13.0106471,25.5901421 13.0106471,26.3110047 C13.0106471,27.3356476 13.6641853,27.9859018 14.6888283,27.9859018 C15.4080488,27.9859018 16.296401,27.5589672 16.8317113,27.023657 C17.0304,27.8775261 17.6396028,30.517952 17.7315579,30.9218978 C17.9811504,32.0056547 19.3112158,32.2470369 19.994311,31.5639417 L20.9549138,30.6033389 C21.2833249,30.2749278 21.491866,29.8020156 21.5017184,29.3652288 C21.5050025,29.2043073 21.5378436,25.3372655 21.5526221,23.7034199 C21.5542642,23.5145834 21.5559062,23.5112993 21.6872707,23.3815769 C21.8153511,23.2534965 24.9385415,20.302722 25.8465984,19.4242221 C26.1388844,20.3142164 29.8039533,31.7002323 30.1044495,32.631278 C30.3753887,33.4703686 31.0634102,33.9892583 31.9008587,33.9892583 C32.4016858,33.9892583 32.8828082,33.7987798 33.2161455,33.4638004 C33.7810128,32.8989332 34.1734641,32.5770902 34.1882426,31.7248632 C34.1898847,31.5409529 34.2046632,21.4636555 34.2128735,15.8297616 L34.2177996,12.1466301 C34.2194417,11.4651769 34.5248641,10.9167302 34.7875931,10.6556433 L34.7875931,10.6556433 Z M9.29303242,8.45036215 C9.51799408,8.44707804 19.5608083,8.4339416 25.1749975,8.42573132 L28.1914543,8.42080515 L22.78088,13.9906589 C22.606822,13.8379477 22.3966389,13.6934468 22.0862903,13.5916393 C21.3670698,13.3551833 12.245449,10.4175452 8.87102404,9.33050414 C8.61978948,9.24840135 8.59187453,9.04971258 8.693682,8.94133688 L9.29303242,8.45036215 L9.29303242,8.45036215 Z M32.5461867,31.7018744 L32.055212,32.3028668 C32.0289391,32.3274977 31.7891989,32.5081238 31.6676868,32.1271669 C31.3671905,31.1961211 27.6988375,19.8002529 27.4065516,18.9102585 C27.3145964,18.631109 27.1684535,18.4094315 27.0026058,18.218953 L32.5757437,12.8050945 L32.5708175,15.8281195 C32.5626072,21.4439509 32.5478287,31.4785548 32.5461867,31.7018744 L32.5461867,31.7018744 Z M24.6823808,18.1844698 L37.9140676,5.33045585 C37.9107835,5.33373997 24.6774546,18.189396 24.6741705,18.1926801 C24.4869761,18.3782324 21.519781,21.2567565 20.5246951,22.2222854 C20.0879082,22.6590723 19.9154923,23.0695863 19.9105662,23.6886413 L19.8990718,25.0991674 C19.8842933,26.7264448 19.8629465,29.1763923 19.7939802,29.4424054 L19.2110503,30.0253352 C18.9614578,28.9465045 18.4458523,26.7100243 18.3768859,26.4144542 C18.1026626,25.2535207 16.5624141,24.9579506 15.562402,25.9563206 C15.2947469,26.2256178 14.9318525,26.3438458 14.6674815,26.4275907 C14.6149357,26.2978682 14.68226,25.792115 15.0402282,25.4341468 C15.5837488,24.8889842 15.8070684,24.205889 15.6362945,23.6032544 C15.4967198,23.1106377 15.1026264,22.7411751 14.5820946,22.6196629 L10.9761398,21.7871406 L11.657593,21.1368864 L17.3062654,21.0859827 C17.9269626,21.0810565 18.3374766,20.9086406 18.7742635,20.4751379 C19.7365082,19.480052 22.6183164,16.5095727 22.8038688,16.3223784 C22.8055108,16.3207363 22.8071529,16.3158101 22.810437,16.3141681 L35.666093,3.08412332 C36.5035415,2.24667479 38.3147292,1.09559357 39.101274,1.89363276 C39.5364189,2.32877758 39.5971749,3.64734851 37.9140676,5.33045585 L24.6823808,18.1844698 Z" id="plane" fill="#54636D"></path>
                <path d="M29.5,35.5 L24.9723074,40.0276928" id="Line" stroke-opacity="0.497763813" stroke="#47B7E9" stroke-width="2" stroke-linecap="square"></path>
                <path d="M5.5,11.5 L0.972307444,16.0276928" id="Line-Copy-2" stroke-opacity="0.497763813" stroke="#47B7E9" stroke-width="2" stroke-linecap="square"></path>
                <path d="M27.5,29.5 L22.9723074,34.0276928" id="Line-Copy" stroke-opacity="0.497763813" stroke="#47B7E9" stroke-width="2" stroke-linecap="square"></path>
                <path d="M12.5,13.5 L7.97230744,18.0276928" id="Line-Copy-3" stroke-opacity="0.497763813" stroke="#47B7E9" stroke-width="2" stroke-linecap="square"></path>
            </g>
        </g>
    </g>
</svg>