<?xml version="1.0" encoding="UTF-8" standalone="no"?>
<svg width="33px" height="31px" viewBox="0 0 33 31" version="1.1" xmlns="http://www.w3.org/2000/svg" xmlns:xlink="http://www.w3.org/1999/xlink">
    <!-- Generator: Sketch 3.7.2 (28276) - http://www.bohemiancoding.com/sketch -->
    <title>helmet_icn</title>
    <desc>Created with Sketch.</desc>
    <defs></defs>
    <g id="WEB" stroke="none" stroke-width="1" fill="none" fill-rule="evenodd">
        <g id="ELEMENTS" transform="translate(-743.000000, -3176.000000)">
            <g id="helmet_icn" transform="translate(743.000000, 3176.000000)">
                <path d="M32.23,23.79 L17.052,19.742 C15.826,19.415 14.972,18.304 14.972,17.035 C14.975,15.379 16.316,14.038 17.972,14.035 L31.655,14.035 C32.207,14.035 32.655,13.587 32.655,13.035 C32.655,12.483 32.207,12.035 31.655,12.035 L17.972,12.035 C15.211,12.036 12.973,14.273 12.972,17.035 C12.973,19.21 14.435,21.114 16.536,21.674 L31.715,25.723 C32.248,25.865 32.796,25.548 32.939,25.014 C33.081,24.481 32.764,23.932 32.23,23.79" id="Fill-60" fill-opacity="0.495018116" fill="#47B7E9"></path>
                <path d="M16.972,17.035 C16.972,17.587 17.42,18.035 17.972,18.035 C18.525,18.035 18.972,17.587 18.972,17.035 C18.972,16.483 18.525,16.035 17.972,16.035 C17.42,16.035 16.972,16.483 16.972,17.035" id="Fill-61" fill="#72C3E2"></path>
                <path d="M16.986,0.035 C15.961,0.035 14.907,0.132 13.85,0.334 L14.034,1.317 L14.22,2.299 C15.155,2.12 16.074,2.035 16.973,2.035 C20.835,2.036 24.343,3.603 26.881,6.14 C29.418,8.679 31,12.173 31,16.035 L31,25.829 C31,26.686 30.642,27.424 30.092,27.966 C29.541,28.507 28.784,28.831 27.987,28.831 C27.732,28.831 27.468,28.798 27.203,28.727 L6.041,23.085 C5.141,22.845 4.394,22.214 4.049,21.384 C3.358,19.734 2.973,17.932 2.973,16.035 C2.973,14.947 3.099,13.827 3.37,12.684 C4.603,7.458 8.945,3.301 14.219,2.299 L13.843,0.334 C7.777,1.499 2.854,6.214 1.424,12.223 C1.118,13.515 0.972,14.791 0.972,16.035 C0.972,18.204 1.414,20.272 2.203,22.156 C2.805,23.59 4.053,24.625 5.524,25.017 L26.684,30.66 C27.117,30.775 27.567,30.831 27.994,30.831 C30.675,30.826 33,28.662 33,25.829 L33,16.035 C33,7.209 25.812,0.037 16.986,0.035" id="Fill-127" fill="#54636D"></path>
            </g>
        </g>
    </g>
</svg>