<?xml version="1.0" encoding="UTF-8" standalone="no"?>
<svg width="82px" height="26px" viewBox="0 0 82 26" version="1.1" xmlns="http://www.w3.org/2000/svg" xmlns:xlink="http://www.w3.org/1999/xlink">
    <!-- Generator: Sketch 3.7.2 (28276) - http://www.bohemiancoding.com/sketch -->
    <title>LOGOTYPE</title>
    <desc>Created with Sketch.</desc>
    <defs></defs>
    <g id="WEB" stroke="none" stroke-width="1" fill="none" fill-rule="evenodd">
        <g id="ELEMENTS" transform="translate(-645.000000, -2602.000000)" fill="#313F48">
            <g id="LOGOTYPE" transform="translate(644.000000, 2602.000000)">
                <path d="M52.6964032,19.0274297 L49.2606482,9.71513452 C49.1207306,9.38866007 48.9652666,9.23319604 48.6232457,9.23319604 L47.1307911,9.23319604 C46.7887702,9.23319604 46.6177598,9.38866007 46.4933886,9.71513452 L43.0420871,19.0274297 C42.9643551,19.2139866 42.9643551,19.462729 43.306376,19.462729 L44.9387483,19.462729 C45.2807691,19.462729 45.4051404,19.3694506 45.5295116,18.9963369 L45.9648109,17.7681711 L49.7736795,17.7681711 L50.2089788,18.9963369 C50.33335,19.3694506 50.4577212,19.462729 50.7997421,19.462729 L52.4321144,19.462729 C52.7741352,19.462729 52.7741352,19.2139866 52.6964032,19.0274297 L52.6964032,19.0274297 Z M46.7110382,15.5916747 L47.8770184,12.1559197 L49.0429986,15.5916747 L46.7110382,15.5916747 Z M61.9529143,17.2862326 L56.9936118,17.2862326 L56.9936118,15.2341075 L61.1600477,15.2341075 C61.517615,15.2341075 61.6108934,15.0630971 61.6108934,14.7832618 L61.6108934,13.5706424 C61.6108934,13.2908071 61.517615,13.1197967 61.1600477,13.1197967 L56.9936118,13.1197967 L56.9936118,11.4252388 L61.6886254,11.4252388 C62.0461927,11.4252388 62.1394711,11.2542284 62.1394711,10.9743931 L62.1394711,9.68404172 C62.1394711,9.40420647 62.0461927,9.23319604 61.6886254,9.23319604 L54.9881259,9.23319604 C54.6305586,9.23319604 54.5372802,9.40420647 54.5372802,9.68404172 L54.5372802,19.0118833 C54.5372802,19.2917186 54.6305586,19.462729 54.9881259,19.462729 L61.9529143,19.462729 C62.3104815,19.462729 62.40376,19.2917186 62.40376,19.0118833 L62.40376,17.7370783 C62.40376,17.4572431 62.3104815,17.2862326 61.9529143,17.2862326 L61.9529143,17.2862326 Z M68.6909081,9.23319604 L65.1929675,9.23319604 C64.8354002,9.23319604 64.7421218,9.40420647 64.7421218,9.68404172 L64.7421218,19.0118833 C64.7421218,19.3694506 64.9131322,19.462729 65.1929675,19.462729 L66.7320613,19.462729 C67.0118966,19.462729 67.182907,19.3694506 67.182907,19.0118833 L67.182907,16.4311805 L68.6753617,16.4311805 C71.3337965,16.4311805 72.7640656,15.0009114 72.7640656,12.8399615 C72.7640656,10.6945579 71.3648893,9.23319604 68.6909081,9.23319604 L68.6909081,9.23319604 Z M68.6753617,14.3324161 L67.182907,14.3324161 L67.182907,11.4252388 L68.6753617,11.4252388 C69.8879811,11.4252388 70.4165588,12.0781877 70.4165588,12.8866007 C70.4165588,13.6639208 69.8879811,14.3324161 68.6753617,14.3324161 L68.6753617,14.3324161 Z M83,12.513487 C83,10.0571554 80.6680396,9 78.8180177,9 C76.9679957,9 74.6671281,10.0571554 74.6671281,12.513487 L74.6671281,16.1824381 C74.6671281,18.6387697 76.9679957,19.6959251 78.8180177,19.6959251 C80.6680396,19.6959251 83,18.6387697 83,16.1824381 L83,12.513487 Z M80.5592148,15.9647884 C80.5592148,16.9597582 79.8440803,17.5349751 78.8180177,17.5349751 C77.8075015,17.5349751 77.092367,16.9597582 77.092367,15.9647884 L77.092367,12.7311366 C77.092367,11.7361669 77.8075015,11.16095 78.8180177,11.16095 C79.8440803,11.16095 80.5592148,11.7361669 80.5592148,12.7311366 L80.5592148,15.9647884 Z" id="TYPE"></path>
                <g id="SIGN">
                    <polygon id="Rectangle-121" transform="translate(11.604088, 14.863943) rotate(-330.000000) translate(-11.604088, -14.863943) " points="7.01498654 0.783815945 15.5101772 5.83766373 16.1931901 23.9440695 7.48870709 28.9440695"></polygon>
                    <polygon id="Rectangle-121-Copy" transform="translate(20.041266, 19.236538) scale(-1, 1) rotate(-330.000000) translate(-20.041266, -19.236538) " points="15.3917468 10.1008031 24.6058485 18.0600951 24.6907848 23.2072092 15.7446324 28.3722726"></polygon>
                </g>
            </g>
        </g>
    </g>
</svg>